Coordinates
version=1
nRows=10
nColumns=40
inDegrees=yes

Units are S.I. units (second, meters, Newtons, ...)
If the header above contains a line with 'inDegrees', this indicates whether rotational values are in degrees (yes) or radians (no).

endheader
time	pelvis_tilt	pelvis_list	pelvis_rotation	pelvis_tx	pelvis_ty	pelvis_tz	hip_flexion_r	hip_adduction_r	hip_rotation_r	knee_angle_r	knee_angle_r_beta	ankle_angle_r	subtalar_angle_r	mtp_angle_r	hip_flexion_l	hip_adduction_l	hip_rotation_l	knee_angle_l	knee_angle_l_beta	ankle_angle_l	subtalar_angle_l	mtp_angle_l	lumbar_extension	lumbar_bending	lumbar_rotation	arm_flex_r	arm_add_r	arm_rot_r	elbow_flex_r	pro_sup_r	wrist_flex_r	wrist_dev_r	arm_flex_l	arm_add_l	arm_rot_l	elbow_flex_l	pro_sup_l	wrist_flex_l	wrist_dev_l
      5.11500000	    -30.22349169	      3.03302663	      0.49716248	     -0.39621338	      0.81858229	     -0.90998938	     77.20839368	    -14.86471112	      0.22314549	     71.06085848	      1.24024595	     28.14675641	      0.00000000	      0.00000000	     76.63890183	     -6.17414530	     -0.23693007	     71.01712201	      1.23948260	     28.83628579	      0.00000000	      0.00000000	    -32.54087915	      0.45843296	     -8.40517144	      2.06449354	    -60.88464383	     69.39849037	    106.15959501	     87.74045920	      0.00000000	      0.00000000	     -3.56420935	    -60.13443956	     64.27997852	     98.77153020	     88.04203949	      0.00000000	      0.00000000
      5.12000000	    -29.81113253	      2.87913412	      0.30224863	     -0.39344281	      0.82154936	     -0.90957593	     76.30997535	    -14.63380008	      0.01373524	     70.63601574	      1.23283105	     28.22671919	      0.00000000	      0.00000000	     75.84003811	     -6.38316963	     -0.12436292	     70.71890579	      1.23427775	     28.99301754	      0.00000000	      0.00000000	    -32.04461108	      0.48757027	     -8.22868872	      0.98441306	    -60.94306757	     68.21671189	    106.30656949	     87.74472338	      0.00000000	      0.00000000	     -5.10228958	    -59.98327698	     62.42671110	     98.74446363	     88.04523493	      0.00000000	      0.00000000
      5.12500000	    -28.40603774	      2.77318865	      0.15197351	     -0.38824406	      0.82761708	     -0.90929602	     74.04406036	    -14.56537339	     -0.31321539	     69.94775263	      1.22081859	     28.09035143	      0.00000000	      0.00000000	     73.66510669	     -6.52841352	     -0.21589652	     70.10703902	      1.22359866	     28.88577171	      0.00000000	      0.00000000	    -32.57162467	      0.51473945	     -8.08791364	      0.89099407	    -60.69047094	     67.99686563	    105.91036261	     87.72983671	      0.00000000	      0.00000000	     -5.26692977	    -59.61926210	     62.05452925	     98.16997694	     88.02747209	      0.00000000	      0.00000000
      5.13000000	    -27.49057488	      2.60516721	     -0.28571138	     -0.38432990	      0.83172576	     -0.90845009	     72.51915384	    -14.12622543	     -0.53911262	     69.48434971	      1.21273068	     28.36375964	      0.00000000	      0.00000000	     72.23724699	     -7.01725308	     -0.26178071	     69.86109566	      1.21930614	     29.17487590	      0.00000000	      0.00000000	    -32.59019560	      0.43887891	     -7.73011814	     -0.13759160	    -60.69942659	     66.82996698	    106.02286025	     87.74488279	      0.00000000	      0.00000000	     -6.92935787	    -59.39522674	     60.04610604	     98.13377474	     88.04911692	      0.00000000	      0.00000000
      5.13500000	    -26.90957972	      3.08417681	     -0.43581664	     -0.38094154	      0.83558229	     -0.90850488	     71.59338712	    -14.27401795	     -0.17054969	     69.04650002	      1.20508876	     28.19959405	      0.00000000	      0.00000000	     70.96757801	     -6.85273515	     -0.78126393	     69.27368736	      1.20905393	     29.26727120	      0.00000000	      0.00000000	    -32.11720246	     -0.10905194	     -7.94263141	     -0.74601287	    -60.57868153	     66.17799576	    105.99009654	     87.74251364	      0.00000000	      0.00000000	     -8.14033069	    -59.26014372	     58.63995424	     98.05585417	     88.05113576	      0.00000000	      0.00000000
      5.14000000	    -26.26607376	      3.14736292	     -0.72890259	     -0.37756926	      0.84014291	     -0.90800436	     70.36693650	    -14.05483951	     -0.15908252	     68.32168609	      1.19243837	     27.98344493	      0.00000000	      0.00000000	     69.69067506	     -7.03202751	     -0.96244112	     68.67522376	      1.19860877	     29.15048867	      0.00000000	      0.00000000	    -31.64786399	     -0.35390893	     -7.67553071	     -0.95930547	    -60.54566957	     66.01559235	    105.99661324	     87.72717332	      0.00000000	      0.00000000	     -8.41557132	    -59.18012656	     58.28475729	     97.95340916	     88.03147379	      0.00000000	      0.00000000
      5.14500000	    -24.81497793	      2.10008515	     -0.11447360	     -0.37189375	      0.84599997	     -0.90876997	     67.60556699	    -14.34306986	     -1.79500920	     67.70944029	      1.18175267	     28.34186603	      0.00000000	      0.00000000	     67.77666846	     -6.89272194	      0.10207244	     68.29616326	      1.19199292	     29.25478840	      0.00000000	      0.00000000	    -32.16761867	      0.97712376	     -7.79380832	     -2.17289603	    -60.55513962	     64.46626421	    105.94198232	     87.71158599	      0.00000000	      0.00000000	    -10.20438155	    -58.56770516	     56.01349287	     97.65455720	     88.03996627	      0.00000000	      0.00000000
      5.15000000	    -24.03943836	      2.02938343	     -0.62894893	     -0.36807839	      0.85101913	     -0.90755081	     66.15622742	    -13.77990873	     -1.79139399	     66.90998204	      1.16779949	     28.26621778	      0.00000000	      0.00000000	     66.30926810	     -7.43761645	     -0.14877290	     67.68924276	      1.18140015	     29.22217912	      0.00000000	      0.00000000	    -31.89539027	      0.71582254	     -7.38299146	     -2.84918543	    -60.43191539	     63.63648572	    105.92288755	     87.70760869	      0.00000000	      0.00000000	    -11.35148659	    -58.42454311	     54.58077644	     97.62829978	     88.04060634	      0.00000000	      0.00000000
      5.15500000	    -23.29426057	      1.97098437	     -0.72555707	     -0.36371741	      0.85578352	     -0.90734901	     64.70556811	    -13.73487671	     -2.05881287	     66.25044612	      1.15628842	     28.15968376	      0.00000000	      0.00000000	     64.90119602	     -7.53236230	     -0.25225816	     67.09917246	      1.17110148	     29.17953511	      0.00000000	      0.00000000	    -31.50064975	      0.68515390	     -7.32218466	     -3.87540699	    -60.34159825	     62.42471241	    105.94170096	     87.70182480	      0.00000000	      0.00000000	    -12.90674981	    -58.11051744	     52.68317759	     97.54155767	     88.04240503	      0.00000000	      0.00000000
      5.16000000	    -22.65864111	      1.95460740	     -0.75201843	     -0.35947927	      0.86098865	     -0.90759108	     63.29683434	    -13.78976780	     -2.32276638	     65.38401306	      1.14116631	     27.90325212	      0.00000000	      0.00000000	     63.54334837	     -7.47878636	     -0.31928240	     66.31609934	      1.15743428	     28.90812175	      0.00000000	      0.00000000	    -30.87440166	      0.67947225	     -7.23882286	     -4.22337238	    -60.29486340	     62.10700365	    105.84132176	     87.67845900	      0.00000000	      0.00000000	    -13.34262558	    -57.91315727	     52.21020680	     97.41854138	     88.02011291	      0.00000000	      0.00000000
